<svg width="120" height="105" viewBox="0 0 120 105" fill="none" xmlns="http://www.w3.org/2000/svg">
<path d="M120 0L114.556 9.31412C113.925 10.2658 113.047 11.0627 111.999 11.6355C110.95 12.2083 109.763 12.5394 108.541 12.6L21.0385 12.6L58.7478 77.2676L65.171 88.2494C65.628 89.1588 65.8645 90.1467 65.8645 91.1462C65.8645 92.1457 65.628 93.1336 65.171 94.0429L58.7614 105L50.6779 91.1153L4.87162 12.6L0.707406 5.43529C-1.04809 2.47059 0.58493 0 4.31367 0L120 0Z" fill="#F4F4F4"/>
<path d="M45.9424 27.5347L97.1649 27.5347C100.894 27.5347 102.527 30.0053 100.785 32.97L96.2123 40.7647L74.9422 77.2676L68.5462 66.2735C68.0823 65.368 67.842 64.3815 67.842 63.3829C67.842 62.3843 68.0823 61.3978 68.5462 60.4923L80.0181 40.7647H57.7818C56.5535 40.7192 55.3567 40.3988 54.2977 39.832C53.2388 39.2652 52.3507 38.4695 51.7124 37.5158L45.9424 27.5347Z" fill="#F4F4F4"/>
</svg>
