<svg width="40" height="42" viewBox="0 0 40 42" fill="none" xmlns="http://www.w3.org/2000/svg">
<path d="M40 27.2642H31.3557L29.9841 18.6249L24.9442 27.2002H23.9872C23.4131 26.2083 23.1898 24.7684 23.1898 23.8725C23.1898 22.4006 23.2855 20.9607 23.2855 19.0728C23.2855 16.577 22.5518 15.2651 20.6061 14.7851V14.7212C24.7209 14.1452 26.6029 11.3934 26.6029 7.55369C26.6029 2.0821 22.9665 0.898193 18.2137 0.898193H5.42265L0 26.6243H6.79426L8.77193 17.249H13.3014C15.7257 17.249 16.7145 18.4329 16.7145 20.7047C16.7145 22.4326 16.5231 23.8085 16.5231 25.1204C16.5231 25.6003 16.6188 26.7522 16.9697 27.2002L21.882 32.4158L17.6396 41.5351L26.6986 36.1275L33.4609 41.3432L32.2169 32.7358L40 27.2642ZM15.3429 12.4493H9.92025L11.2281 6.24179H16.2679C18.0542 6.24179 19.9362 6.72176 19.9362 8.89759C19.9362 11.6814 17.799 12.4493 15.3429 12.4493ZM26.8262 34.6237L20.5104 38.3994L23.4131 32.1918L19.9043 28.4801H25.6778L29.3142 22.3046L30.303 28.5441H36.0447L30.8772 32.1598L31.8022 38.4954L26.8262 34.6237Z" fill="#FAFAFA"/>
</svg>
