<svg width="640" height="512" viewBox="0 0 640 512" fill="none" xmlns="http://www.w3.org/2000/svg">
<g clip-path="url(#clip0)">
<path d="M257.981 272.971L63.638 467.314C54.265 476.687 39.069 476.687 29.697 467.314L7.02903 444.647C-2.32797 435.29 -2.34597 420.125 6.98903 410.746L161.011 256L6.99003 101.255C-2.34497 91.876 -2.32697 76.711 7.03003 67.354L29.697 44.687C39.07 35.314 54.266 35.314 63.638 44.687L257.981 239.03C267.354 248.402 267.354 263.598 257.981 272.971ZM640 456V424C640 410.745 629.255 400 616 400H312C298.745 400 288 410.745 288 424V456C288 469.255 298.745 480 312 480H616C629.255 480 640 469.255 640 456Z" fill="#485BFF"/>
</g>
<defs>
<clipPath id="clip0">
<rect width="640" height="512" fill="white"/>
</clipPath>
</defs>
</svg>
